<svg xmlns="http://www.w3.org/2000/svg" width="100" height="61" viewBox="0 0 100 61" fill="none"><path d="M60.3193 35.7554C58.5462 45.9721 51.9679 54.5315 43.0298 58.9776H60.3193V35.7554Z" fill="url(#paint0_linear_68_1989)"></path><path d="M43.0032 58.9834H44.8488C52.8377 54.3243 58.6382 46.2575 60.2861 36.7596V35.7612C58.513 45.9779 51.9347 54.5373 42.9966 58.9834H43.0032Z" fill="url(#paint1_radial_68_1989)"></path><path d="M84.1409 38.7833C91.0488 35.5819 95.8606 28.5334 95.8606 20.3667C95.8606 12.2 86.8632 0.119629 75.8092 0.119629H39.991C46.1013 2.38927 51.335 6.50922 55.0262 11.8006H75.8158C80.4958 11.8006 84.2991 15.641 84.2991 20.3667C84.2991 25.0923 80.4958 28.9327 75.8158 28.9327H61.9011L61.9341 28.9793H61.8023L84.7407 60.7143H100L84.1475 38.7833H84.1409Z" fill="url(#paint2_linear_68_1989)"></path><path opacity="0.4" d="M85.1033 20.3668C85.1033 15.6412 81.3 11.8008 76.6201 11.8008H75.8291C80.5091 11.8008 84.3124 15.6412 84.3124 20.3668C84.3124 25.0925 80.5091 28.9329 75.8291 28.9329H76.6201C81.3 28.9329 85.1033 25.0925 85.1033 20.3668Z" fill="url(#paint3_linear_68_1989)"></path><path d="M39.4569 0.0998374L32.3842 0L18.9441 11.1219V23.4684L28.5347 15.5347V60.1953H39.4173V0.206329L39.3909 0.212987L39.4569 0.0998374Z" fill="#D4CA9F"></path><path d="M59.5143 30.2112C59.5143 17.7249 51.9341 6.99569 41.1768 2.46973V15.9278C45.303 19.2957 47.9462 24.4473 47.9462 30.2112C47.9462 35.9752 45.303 41.1268 41.1768 44.4946V57.9527C51.9341 53.4201 59.5143 42.6976 59.5143 30.2112Z" fill="url(#paint4_linear_68_1989)"></path><path d="M11.5681 30.2109C11.5681 25.0593 13.684 20.4002 17.072 17.059V10.6095L29.4508 0.166504C13.183 0.3329 0 13.7444 0 30.2109C0 46.6774 11.7329 58.5581 26.722 60.1022V48.3214C18.1332 46.8571 11.5681 39.2961 11.5681 30.2109Z" fill="#0A2757"></path><path opacity="0.7" d="M39.4569 0.0998374L32.3842 0L18.9441 11.1219V23.4684L28.5347 15.5347V60.1953H39.4173V0.206329L39.3909 0.212987L39.4569 0.0998374Z" fill="url(#paint5_linear_68_1989)"></path><path opacity="0.7" d="M11.5681 30.2109C11.5681 25.0593 13.684 20.4002 17.072 17.059V10.6095L29.4508 0.166504C13.183 0.3329 0 13.7444 0 30.2109C0 46.6774 11.7329 58.5581 26.722 60.1022V48.3214C18.1332 46.8571 11.5681 39.2961 11.5681 30.2109Z" fill="url(#paint6_linear_68_1989)"></path><defs><linearGradient id="paint0_linear_68_1989" x1="25.0679" y1="18.6965" x2="94.6085" y2="92.1751" gradientUnits="userSpaceOnUse"><stop stop-color="#0A2757"></stop><stop offset="1" stop-color="#1D1D1B"></stop></linearGradient><radialGradient id="paint1_radial_68_1989" cx="0" cy="0" r="1" gradientUnits="userSpaceOnUse" gradientTransform="translate(49.6013 45.5187) scale(14.2838 14.4232)"><stop stop-color="white"></stop><stop offset="1" stop-color="white" stop-opacity="0"></stop></radialGradient><linearGradient id="paint2_linear_68_1989" x1="50.9724" y1="-5.82402" x2="120.513" y2="67.6546" gradientUnits="userSpaceOnUse"><stop stop-color="#0A2757"></stop><stop offset="1" stop-color="#1D1D1B"></stop></linearGradient><linearGradient id="paint3_linear_68_1989" x1="84.6947" y1="16.5797" x2="77.0386" y2="20.3937" gradientUnits="userSpaceOnUse"><stop stop-color="white"></stop><stop offset="1" stop-color="white" stop-opacity="0"></stop></linearGradient><linearGradient id="paint4_linear_68_1989" x1="29.233" y1="15.4153" x2="98.7735" y2="88.8873" gradientUnits="userSpaceOnUse"><stop stop-color="#0A2757"></stop><stop offset="1" stop-color="#1D1D1B"></stop></linearGradient><linearGradient id="paint5_linear_68_1989" x1="5.41833" y1="-10.5828" x2="28.0801" y2="21.0977" gradientUnits="userSpaceOnUse"><stop stop-color="white"></stop><stop offset="1" stop-color="white" stop-opacity="0"></stop></linearGradient><linearGradient id="paint6_linear_68_1989" x1="-3.05846" y1="-5.39777" x2="20.271" y2="27.215" gradientUnits="userSpaceOnUse"><stop stop-color="white"></stop><stop offset="1" stop-color="white" stop-opacity="0"></stop></linearGradient></defs></svg>